<?xml version="1.0" encoding="utf-8" ?><svg xmlns="http://www.w3.org/2000/svg" xmlns:xlink="http://www.w3.org/1999/xlink" width="1024" height="1024" viewBox="0 0 1024 1024"><path fill="#066177" d="M150.826 47.7134C150.986 47.6875 151.146 47.6615 151.306 47.6355C162.416 47.4217 174.558 47.5245 185.597 47.5402L257.768 47.6403L494.22 47.8229L751.115 47.5482L834.164 47.5168C848.155 47.5247 867.966 46.8998 881.433 48.1926C897.742 49.648 913.291 55.7474 926.24 65.7684C944.389 79.5366 958.418 101.534 961.324 124.261C962.956 137.027 962.39 155.773 962.387 169.196L962.268 240.452L962.286 446.202L962.415 751.778L962.468 845.761C962.484 860.807 963.309 877.806 962.244 892.503C959.76 926.765 936.975 957.868 904.756 969.983C894.618 973.795 886.401 975.152 875.723 976.42C818.546 978.287 757.04 976.965 699.555 976.945L399.698 977.082L235.596 977.094L182.014 977.243C149.313 977.248 122.271 978.563 95.8384 955.871C74.8842 938.695 61.5812 914.959 61.3831 887.338C61.1033 848.34 61.4993 808.997 61.6163 769.847L61.7872 521.175L61.8785 259.255L61.973 175.93C62.0137 141.746 58.1558 109.236 82.6749 80.9043C102.286 58.2436 121.549 50.2867 150.826 47.7134ZM135.706 337.356L223.665 720.713L241.577 797.931C242.757 803.25 248.65 832.622 250.215 835.83L251.126 836.376C262.955 834.307 276.363 830.431 288.172 827.439C307.653 822.634 327.106 817.712 346.528 812.674L434.717 790.895C461.934 784.109 489.19 777.484 516.486 771.019L646.493 741.988C694.945 730.78 743.313 719.205 791.59 707.265L855.879 691.935C863.777 690.071 880.41 686.683 887.38 684.14C884.37 672.637 881.756 659.833 879.036 648.139L859.345 562.488L802.79 317.306L781.368 222.879L775.851 198.868C775.122 195.667 774.205 190.319 773.18 187.548L772.403 187.162C757.624 190.042 738.924 195.116 724.021 198.745C693.551 206.257 663.041 213.606 632.493 220.792L274.797 304.918L184.335 326.109C168.702 329.784 151.333 334.186 135.706 337.356ZM357.312 259.552C361.272 253.75 360.827 250.002 359.302 243.257C355.723 227.427 353.083 210.85 347.837 195.517C346.275 190.948 341.31 189.022 336.81 189.582C323.254 192.941 309.661 196.149 296.034 199.205C288.122 201.003 279.684 202.456 272.094 205.263C269.333 205.928 266.107 211.428 266.47 214.086C268.9 231.836 274.346 249.339 277.696 266.987C278.877 273.207 284.573 277.313 290.814 276.069C303.716 272.682 316.673 269.504 329.678 266.534C337.335 264.767 350.459 262.117 357.312 259.552ZM422.738 59.5228C416.062 70.8147 409.238 82.0178 402.266 93.129C398.062 99.8756 393.085 108.208 388.318 114.43C378.289 117.556 364.245 120.478 353.814 122.959L295.726 136.905L182.753 163.948C146.802 172.372 109.529 180.777 73.7467 189.717C73.6548 201.511 73.3408 213.455 73.629 225.226L474.124 132.193L671.394 85.8082L735.37 70.3627C745.291 67.9543 755.239 65.6311 765.156 63.2055C766.335 62.917 767.323 62.2449 767.94 61.2014C767.265 59.1962 764.108 59.4458 762.2 59.4287C736.382 59.1982 710.554 59.2692 684.734 59.2959L562.443 59.4084L482.937 59.4872C469.835 59.4891 453.089 59.0394 440.267 59.6677C430.92 72.1404 422.765 86.1394 414.591 99.4175C410.142 106.643 405.183 115.862 399.769 122.196C402.593 127.063 404.921 132.06 403.385 137.918C402.552 141.196 400.34 143.953 397.321 145.478C390.813 148.827 379.748 147.03 376.819 139.962C371.178 126.354 382.458 116.784 395.571 119.093C407.016 101.578 417.253 83.3819 428.845 65.956C430.202 63.9155 431.519 61.6487 432.793 59.5494L422.738 59.5228ZM427.388 893.573C442.132 889.834 456.888 886.59 471.62 882.922C476.989 881.585 487.402 879.163 492.076 877.092C494.022 874.719 494.525 873.991 495.98 871.293C495.583 861.715 486.055 816.775 480.613 811.555C477.964 809.014 474.498 808.426 470.977 808.259C461.967 809.308 407.432 821.915 404.305 825.937C400.957 830.242 401.758 837.281 402.679 842.327C403.81 848.527 405.387 854.662 406.77 860.809C408.592 868.909 411.01 887.663 418.288 892.458C421.133 894.333 424.171 894.043 427.388 893.573ZM323.969 115.446C314.587 118.274 301.645 120.939 291.75 123.263L237.888 136.098C196.644 146.097 155.315 155.74 113.905 165.024C100.664 168.025 87.2041 171.387 73.9788 174.214L74.0614 183.848C86.7828 179.676 108.122 174.655 121.377 171.725C192.537 155.257 263.607 138.403 334.585 121.166C350.78 117.149 368.922 113.419 384.81 109.135C394.976 92.8678 406.377 75.9003 416.066 59.5367C397.054 58.5594 375.903 60.4109 358.235 59.2097C349.15 75.7692 334.448 99.5323 323.969 115.446ZM719.181 166.92C716.729 155.688 714.146 144.486 711.434 133.314C709.795 126.358 708.413 118.598 705.704 111.972C704.04 107.904 700.788 106.263 696.497 106.14C682.359 109.482 668.197 112.72 654.011 115.851C645.472 117.759 636.691 119.503 628.336 122.125C624.24 123.411 623.083 126.019 621.594 129.794C623.501 147.148 629.334 166.727 633.306 183.889C634.555 189.286 638.374 192.75 644.102 192.503C659.398 189.472 674.73 185.136 689.963 181.679C697.703 179.922 705.763 177.989 713.147 175.131C716.232 173.871 717.946 169.755 719.181 166.92ZM101.801 243.139C92.3011 244.538 82.3036 247.956 73.451 249.306C73.6332 275.221 73.6679 301.137 73.5551 327.053C79.141 325.322 85.8184 323.982 91.5888 322.676C97.5528 321.348 103.478 320.037 109.484 318.611C115.147 317.266 124.674 314.912 123.935 307.133C122.68 293.941 118.652 280.709 116.052 267.708C114.668 261.471 112.727 247.483 107.597 244.82C105.421 243.69 104.192 243.314 101.801 243.139ZM591.876 965.514L599.864 965.675C602.963 959.101 612.145 945.262 616.274 939.002C620.716 932.268 626.1 923.187 630.616 916.814C642.904 913.218 659.154 909.861 671.803 906.916L741.711 890.757L846.814 866.071C880.919 858.181 917.192 850.319 951.01 841.775C951.076 839.076 951.378 835.684 950.69 833.168C949.582 832.95 950.039 832.913 949.32 833.051C875.616 850.939 801.792 868.333 727.855 885.233C710.18 889.236 692.532 893.363 674.914 897.612C658.634 901.595 641.629 906.144 625.203 909.091C621.052 916.321 590.624 962.685 590.282 964.959C591.196 965.658 590.67 965.457 591.876 965.514ZM949.91 695.147C935.965 698.171 922.022 701.88 908.088 705.037C899.807 706.913 891.222 708.503 883.244 711.294C880.898 712.173 878.844 715.07 877.5 717.049C877.328 727.579 880.901 740.397 882.921 750.835C884.459 758.783 886 767.102 887.934 774.934C895.172 791.525 921.249 781.181 934.27 777.858C939.827 776.49 945.424 775.292 951.053 774.265C951.031 767.034 951.296 697.245 950.501 695.282L949.91 695.147ZM246.025 935.475C247.979 934.83 251.353 933.837 253.054 932.915C254.842 930.673 256.222 929.091 255.602 926.056C253.285 914.73 246.693 876.931 242.644 868.351C238.472 865.57 236.905 865.192 231.882 865.572C230.59 870.099 244.474 926.998 246.025 935.475ZM754.55 161.523L759.33 163.883C764.456 163.913 786.599 157.962 792.272 156.426C790.641 148.835 777.837 88.7034 775.516 87.1982C767.886 88.2425 748.493 92.174 742.557 97.6245C740.305 99.6921 741.209 110.35 742.304 113.613C746.418 125.878 748.586 150.875 754.55 161.523ZM152.895 59.25C131.309 60.0902 109.792 68.2146 95.2472 84.3877C74.7386 107.192 73.0399 124.492 73.9285 153.182L171.094 129.893C182.079 127.269 193.082 124.717 204.101 122.238C208.962 121.121 216.407 119.156 221.139 118.345C241.248 113.445 261.398 108.711 281.586 104.146C289.046 102.422 305.689 98.9823 312.059 96.5158C319.204 87.316 328.841 70.0604 335.764 59.5689C300.048 58.34 260.469 59.0398 224.583 59.0562L180.561 59.0022C171.89 58.9808 161.407 58.704 152.895 59.25ZM683.373 910.662C675.254 912.014 666.204 914.284 658.077 916.16C651.737 917.624 640.191 919.986 634.241 922.394C631.051 927.242 606.723 963.528 606.779 965.561C608.03 965.916 607.576 965.88 608.875 965.82C622.304 965.789 636.557 966.535 649.858 965.706C653.334 960.301 684.23 913.091 684.785 910.826C683.741 910.534 684.215 910.54 683.373 910.662ZM391.772 141.48C396.191 140.419 398.995 136.07 398.137 131.606C397.28 127.143 393.064 124.143 388.566 124.794C385.467 125.243 382.865 127.359 381.794 130.302C380.722 133.245 381.355 136.538 383.441 138.874C385.526 141.211 388.727 142.212 391.772 141.48ZM82.5115 166.419C137.615 152.067 196.056 139.59 251.676 126.465L295.17 116.23C303.182 114.347 313.144 112.386 320.79 109.775C327.871 98.8748 334.854 87.9125 341.74 76.8889C344.972 71.6939 348.79 65.0271 352.149 60.0747C348.273 59.776 345.088 59.6938 341.193 59.6655C334.736 72.2694 324.126 89.7328 316.267 101.708C303.274 105.395 289.933 108.216 276.824 111.516C214.497 127.205 151.436 139.859 89.1608 155.788C84.1351 157.074 79.0849 158.264 74.0923 159.675C74.1585 162.779 74.3017 165.97 74.0773 169.06L82.5115 166.419ZM531.125 965.534C531.577 965.38 532.029 965.226 532.481 965.073C542.959 947.719 565.46 914.349 574.754 898.165C571.854 897.558 569.38 897.06 566.84 895.348C562.161 903.943 556.265 913.05 550.685 921.114C540.758 935.461 531.876 951.294 521.74 965.401L531.125 965.534ZM591.776 779.65C571.181 783.258 549.882 789.86 529.319 794.139C517.862 796.523 519.318 807.277 521.545 816.008C525.201 830.834 527.868 846.65 532.824 861.103C534.472 865.91 539.145 866.786 543.678 866.531C556.728 863.631 569.751 860.612 582.745 857.473C590.447 855.672 597.84 854.052 605.511 851.854C618.113 848.243 615.054 838.962 612.811 828.61C609.72 814.343 606.526 799.689 602.614 785.624C601.302 781.115 596.099 778.856 591.776 779.65ZM660.012 839.799C665.136 839.29 670.916 837.853 676.065 836.57C692.595 832.449 709.726 828.969 726.158 824.632C733.562 822.678 737.997 819.58 736.717 811.482C735.958 805.023 734.484 799.023 733.127 792.772L727.078 764.756C725.677 758.485 724.557 750.191 716.316 750.189C711.352 750.71 705.662 752.172 700.724 753.371C682.762 757.734 664.543 761.43 646.751 766.407C642.327 767.645 640.21 771.961 638.62 775.849L645.99 811.986C647.15 817.866 649.41 830.985 651.386 836.022C654.376 838.443 656 839.706 660.012 839.799ZM576.275 892.329C581.265 891.735 584.834 887.216 584.257 882.224C583.68 877.232 579.174 873.648 574.18 874.207C569.161 874.77 565.555 879.303 566.135 884.32C566.715 889.336 571.26 892.927 576.275 892.329ZM950.396 796.21C939.242 798.101 927.237 801.254 916.175 803.984L875.678 813.781L734.503 847.423L642.833 869.251L611.086 876.825C604.471 878.434 596.678 880.146 590.365 882.455C586.677 895.216 575.459 908.849 567.751 920.35C560.44 931.248 553.313 942.268 546.373 953.405C544.576 956.316 540.494 962.243 539.289 964.897L539.644 965.525C554.111 965.696 568.481 965.47 582.923 965.515C585.414 960.378 589.055 955.049 592.214 950.246C601.982 935.395 611.593 920.725 620.674 905.429C626.101 902.343 650.928 897.035 658.59 895.225L720.348 880.648L862.402 847.19C890.276 840.617 923.322 832.07 951.036 827.114C951.042 823.091 951.441 798.183 950.396 796.21ZM658.38 965.752C661.211 965.72 664.153 965.648 666.974 965.666C672.362 955.6 690.473 927.217 698.064 916.985C699.825 914.611 724.215 909.78 730.218 908.44C746.883 904.754 763.522 900.951 780.134 897.032L950.876 856.747C950.992 854.135 951.29 851.39 950.747 848.873C949.85 848.44 950.304 848.514 949.397 848.588L773.441 889.721L714.202 903.673C707.517 905.23 698.959 907.617 692.581 908.879C685.391 921.363 677.792 933.607 669.796 945.592C667.702 948.764 657.126 963.323 657.423 965.566L658.38 965.752ZM832.888 723.18C815.162 725.946 797.032 731.483 779.358 734.996C773.339 736.334 765.554 737.491 761.139 742.118C759.722 743.603 759.591 751.238 760.013 753.454C762.246 765.189 764.454 776.995 766.53 788.76C768.152 797.953 770.14 808.871 781.708 808.6C795.001 805.962 808.561 802.576 821.763 799.396C829.602 797.507 843.051 795.487 850.191 792.827L850.568 792.69C854.546 787.51 854.956 786.519 854.016 779.844C852.125 766.405 848.86 753.226 845.867 740.001C844.752 735.075 843.392 728.167 839.231 724.97C837.434 723.563 835.155 722.92 832.888 723.18ZM253.938 959.457C254.057 961.457 253.927 963.422 255.027 965.028C256.199 965.504 256.123 965.525 257.375 965.499L427.974 965.623L484.448 965.562C494.59 965.547 506.045 965.313 516.106 965.658C518.332 960.185 527.659 946.054 531.307 940.329C541.463 924.113 551.896 908.072 562.6 892.212C561.76 891.109 560.448 888.843 559.085 888.687C551.089 890.147 541.979 892.457 533.981 894.305L478.16 907.511C403.884 924.74 328.41 943.819 253.938 959.457ZM576.846 134.135C559.363 137.284 541.592 142.813 524.058 146.167C518.32 147.265 509.679 148.958 505.283 153C503.975 155.152 503.432 160.263 503.759 162.433C506.273 179.147 510.405 195.973 514.79 212.296C516.675 219.317 520.905 221.188 527.773 220.204C541.544 216.623 555.491 213.654 569.322 210.335C578.116 208.226 587.422 206.72 595.752 203.293C597.507 202.546 599.13 199.114 599.875 197.36C598.558 183.713 593.707 168.996 591.281 155.441C590.044 148.53 587.176 131.689 576.846 134.135ZM853.883 59.2453C829.545 59.4041 804.024 58.8257 779.87 59.4447L910.203 637.381C912.562 647.9 914.855 659.217 917.586 669.575C928.456 666.488 939.711 664.245 950.494 661.264L950.49 285.076L950.378 179.867C950.285 143.982 955.632 109.676 927.072 82.1412C904.305 60.1916 884.296 59.0218 854.309 59.2417L853.883 59.2453ZM457.812 161.639C452.765 162.331 447.597 163.611 442.66 164.89C425.534 169.327 408.167 172.838 391.09 177.43C389.401 177.884 387.645 178.85 386.162 179.761C381.356 187.994 384.149 193.996 386.039 202.741C388.514 214.188 391.367 225.596 394.115 236.98C395.946 244.287 397.306 248.654 405.968 248.632C422.246 245.267 438.445 241.528 454.551 237.419C478.219 231.574 483.007 235.287 476.977 208.337C475.106 200.089 473.167 191.857 471.161 183.641C469.193 175.37 468.234 163.171 457.812 161.639ZM354.965 835.61C332.557 840.28 309.18 846.645 287.045 852.647C283.937 853.489 282.461 856.748 281.319 859.604C282.072 867.991 292.131 915.968 296.202 919.592C298.255 921.419 301.655 922.226 304.348 921.936C304.578 921.911 304.807 921.874 305.037 921.843C314.877 920.363 330.274 916.406 340.192 914.059C350.056 911.724 365.388 908.457 374.855 905.463C376.964 902.587 377.433 901.697 378.753 898.284C376.809 886.399 374.155 873.838 371.204 862.166C368.894 853.029 367.899 834.02 354.965 835.61ZM221.187 216.554C206.563 220.063 191.918 223.485 177.253 226.821C169.44 228.631 161.434 230.212 153.848 232.793C149.092 234.41 148.036 237.421 146.659 241.904C149.275 253.549 151.816 265.212 154.28 276.89C155.734 283.714 156.981 291.038 159.359 297.588C161.017 302.152 165.376 303.593 169.795 304.367C184.475 300.706 199.175 297.12 213.892 293.609C221.977 291.722 230.503 290.363 238.245 287.563C241.482 286.392 243.633 280.623 243.134 277.433C240.679 261.733 236.365 245.976 232.953 230.448C231.525 223.95 228.632 216.85 221.187 216.554ZM950.185 863.129L792.03 900.547L730.929 914.472C722.57 916.388 710.066 918.726 702.344 921.116C695.752 929.926 689.331 941.23 682.993 950.43C681.703 952.302 674.188 963.78 673.651 965.025C674.406 965.602 673.991 965.462 674.875 965.503L807.967 965.543L845.252 965.58C859.979 965.607 875.554 966.017 889.996 962.736C903.834 959.709 916.517 952.788 926.552 942.791C942.421 927.209 951.305 905.865 951.177 883.625C951.191 880.237 951.406 865.478 950.324 863.216L950.185 863.129ZM103.395 354.133C93.829 356.364 83.0167 358.415 73.6788 360.838L73.5465 734.704L73.456 841.947C73.4048 877.966 67.2773 913.022 96.2358 940.956C121.044 964.887 140.997 965.823 173.188 965.704L214.081 965.554C223.755 965.552 233.747 965.677 243.395 965.442C230.59 914.414 107.734 356.95 103.395 354.133Z"/><path fill="#066177" d="M518.604 302.253C633.737 294.271 733.556 381.1 741.599 496.228C749.642 611.356 662.866 711.221 547.742 719.325C432.531 727.436 332.575 640.58 324.526 525.366C316.477 410.151 403.385 310.241 518.604 302.253ZM534.751 706.156C642.541 705.138 729.093 616.925 728.061 509.135C727.029 401.346 638.804 314.806 531.015 315.852C423.245 316.898 336.725 405.102 337.757 512.872C338.788 620.641 426.982 707.173 534.751 706.156Z"/><path fill="#066177" d="M466.288 343.977L466.98 343.878C468.338 345.138 469.719 358.745 470.144 361.462C471.929 372.402 473.799 383.329 475.753 394.24C479.566 415.865 485.455 446.137 487.713 467.563C504.922 458.026 522.702 446.307 539.717 436.114C575.397 415.183 610.778 393.746 645.848 371.809C669.78 390.941 688.262 416.028 699.442 444.555C703.358 454.681 705.609 463.324 708.701 473.63C681.616 490.758 654.263 506.75 627.071 523.663C614.318 531.596 602.272 538.378 590.024 547.197C591.941 562.133 595.87 580.828 598.483 596.015L610.825 670.722C608.165 671.943 605.002 673.951 602.471 673.977C601.291 672.936 601.668 672.952 601.417 670.89C596.041 645.37 591.85 618.013 586.862 592.329C584.447 579.892 582.957 566.009 579.771 553.912C557.091 566.3 531.949 583.33 509.403 597.018C489.682 608.902 470.101 621.018 450.665 633.362C442.069 638.817 429.301 646.505 421.466 652.478C412.441 644.674 404.157 637.602 396.407 628.476C376.201 604.678 365.201 577.693 357.083 548.166C370.77 539.075 386.555 529.882 400.634 521.29C426.234 505.76 451.706 490.02 477.048 474.073C473.77 449.447 468.23 422.281 464.066 397.498L459.268 368.266C458.404 362.975 457.067 353.851 455.532 348.865C459.104 347.205 462.689 345.576 466.288 343.977ZM452.417 578.08C461.302 573.14 469.52 567.404 478.461 562.532C488.292 578.402 508.024 583.588 523.859 573.346C530.472 569.047 535.059 562.25 536.57 554.509C540.909 533.295 524.241 513.703 502.3 516.598C483.381 520.403 476.908 530.223 474.816 548.733C465.802 555.017 456.55 560.952 447.079 566.525C440.065 558.821 431.682 552.538 420.967 552.249C402.345 551.745 388.462 565.756 388.117 583.869C387.946 592.801 391.386 601.425 397.658 607.788C405.085 615.36 415.569 618.398 425.913 616.427C446.976 610.84 453.056 598.847 452.417 578.08ZM441.257 550.898C453.305 549.478 461.977 538.641 460.72 526.575C459.463 514.509 448.744 505.692 436.661 506.786C428.7 507.507 421.742 512.458 418.451 519.743C415.16 527.029 416.045 535.522 420.767 541.973C425.489 548.423 433.317 551.833 441.257 550.898ZM615.061 453.843C608.977 457.52 594.281 466.813 588.402 469.153C576.779 462.058 568.467 457.564 554.368 460.991C545.209 463.126 537.327 468.925 532.562 477.032C527.606 485.37 526.202 495.348 528.663 504.73C532.963 521.372 549.6 534.578 567.124 531.827C573.731 531.043 580.594 529.087 585.776 524.825C601.256 512.091 602.313 497.597 595.579 480.416C603.978 474.822 612.695 469.72 621.684 465.135C631.974 472.082 639.352 477.044 652.663 474.545C660.884 473.004 668.136 468.211 672.776 461.252C682.841 446.405 679.693 424.146 664.49 413.696C657.422 408.837 649.881 408.248 641.525 408.561C619.603 413.932 608.972 429.52 614.576 451.967C614.733 452.593 614.895 453.219 615.061 453.843Z"/><path fill="#066177" d="M559.71 471.807C573.145 469.749 585.731 478.891 587.93 492.303C590.129 505.715 581.119 518.397 567.731 520.737C558.944 522.272 550.011 518.969 544.336 512.087C538.661 505.206 537.12 495.806 540.301 487.473C543.482 479.14 550.893 473.157 559.71 471.807Z"/><path fill="#066177" d="M643.689 419.824C655.603 418.596 666.293 427.172 667.676 439.07C669.06 450.968 660.624 461.768 648.745 463.306C640.922 464.32 633.159 461.046 628.424 454.736C623.69 448.426 622.717 440.057 625.877 432.829C629.037 425.602 635.842 420.633 643.689 419.824Z"/><path fill="#066177" d="M419.677 563.827C431.224 563.507 440.874 572.548 441.305 584.091C441.737 595.635 432.789 605.372 421.251 605.915C409.553 606.465 399.653 597.368 399.216 585.666C398.778 573.963 407.971 564.152 419.677 563.827Z"/><path fill="#066177" d="M503.126 528.209C513.717 526.379 523.81 533.413 525.758 543.984C527.707 554.554 520.786 564.724 510.238 566.791C503.309 568.149 496.185 565.678 491.584 560.322C486.983 554.965 485.616 547.55 488.004 540.905C490.393 534.26 496.168 529.411 503.126 528.209Z"/><path fill="#066177" d="M434.948 517.702C441.19 515.861 447.737 519.454 449.537 525.708C451.336 531.962 447.7 538.485 441.434 540.243C435.227 541.984 428.778 538.389 426.995 532.194C425.213 525.999 428.765 519.526 434.948 517.702ZM439.223 536.6C443.268 536.184 446.261 532.645 445.998 528.587C445.736 524.529 442.313 521.404 438.248 521.512C435.478 521.585 432.969 523.168 431.71 525.637C430.45 528.105 430.642 531.065 432.208 533.351C433.775 535.637 436.466 536.884 439.223 536.6Z"/><path fill="#066177" d="M442.307 356.941C443.211 358.821 445.613 378.312 446.32 382.046C451.654 410.215 455.878 438.932 462.361 466.835C430.536 484.4 397.959 506.391 366.204 525.349C362.344 527.718 358.563 530.216 354.869 532.837C346.617 457.606 382.009 398.785 442.307 356.941ZM376.54 504.054C390.471 495.532 404.339 486.909 418.144 478.184C427.482 472.273 437.187 465.702 446.801 460.38C445.071 451.164 433.63 381.407 432.504 379.984C391.632 410.101 368.492 458.493 367.242 508.839C370.421 507.271 373.451 505.791 376.54 504.054Z"/><path fill="#066177" d="M710.748 489.976C712.112 491.333 712.21 497.194 712.291 499.26C713.179 518.237 711.014 537.233 705.88 555.523C695.666 592.383 674.115 625.095 644.28 649.028C638.982 653.343 630.921 659.631 625.044 662.914C624.353 658.538 623.791 653.892 623.181 649.483C616.937 617.568 612.798 585.938 606.87 554.016C617.291 546.395 631.93 538.679 643.245 531.537C665.625 517.411 687.871 503.282 710.748 489.976ZM620.679 560.192C624.441 583.519 628.326 606.826 632.333 630.112C632.842 634.098 633.482 637.284 634.31 641.229C672.349 610.06 694.523 571.744 699.706 522.123C699.868 520.575 700.534 512.538 699.964 511.606C674.021 528.178 646.875 543.578 620.679 560.192Z"/><path fill="#066177" d="M567.497 578.1C571.552 584.135 583.918 667.098 586.887 681.76C544.027 694.747 510.042 696.23 467.526 679.497C456.312 674.803 444.245 669.118 434.471 661.894C451.283 650.752 468.436 640.362 485.552 629.703L567.497 578.1ZM456.659 662.753C462.501 665.851 473.571 670.022 480.027 671.963C510.13 681.804 542.472 682.52 572.981 674.019C571.419 665.336 561.558 600.522 559.213 598.43C533.92 614.748 508.449 630.787 482.804 646.546C474.276 651.794 465.201 657.733 456.659 662.753Z"/><path fill="#066177" d="M526.949 330.71C562.044 327.404 606.119 341.354 634.108 362.617C607.645 377.736 582.504 393.233 556.44 408.964C537.944 418.467 518.629 433.02 499.752 442.876C497.607 434.669 496.044 422.352 494.403 413.765C489.716 389.24 486.616 364.088 482.265 339.578C495.988 333.238 512.072 331.962 526.949 330.71ZM495.823 347.332C499.533 372.673 504.374 397.485 508.337 422.531C522.322 414.07 536.868 405.887 550.705 397.364C569.721 385.961 590.532 373.809 609.005 361.684C587.137 349.397 553.726 340.884 528.531 342.697C517.073 343.847 507.114 344.758 495.823 347.332Z"/><path d="M687.619 491.357L687.817 491.507C688.218 492.595 688.572 492.78 689.445 493.679L690.013 494.257L689.414 495.712C688.019 495.755 687.804 495.275 686.957 494.492C686.588 492.276 686.392 493.289 687.619 491.357Z"/><path d="M932.398 838.214L934.05 838.553L934.409 839.134L933.289 840.318L932.344 840.769L931.902 840.321L932.398 838.214Z"/></svg>
